<mxfile host="app.diagrams.net" modified="2020-07-02T13:05:12.354Z" agent="5.0 (Macintosh; Intel Mac OS X 10_15_5) AppleWebKit/537.36 (KHTML, like Gecko) Chrome/83.0.4103.106 Safari/537.36" etag="F_KB_eEYXofKdC3a5nre" version="13.3.0" type="github">
  <diagram id="ZSJdTCFfF0_b-_PigJ5P" name="Page-1">
    <mxGraphModel dx="815" dy="506" grid="1" gridSize="10" guides="1" tooltips="1" connect="1" arrows="1" fold="1" page="1" pageScale="1" pageWidth="827" pageHeight="1169" math="0" shadow="0">
      <root>
        <mxCell id="0" />
        <mxCell id="1" parent="0" />
        <mxCell id="oIJ5VSYgp6g3CNGTtO5o-3" value="" style="edgeStyle=orthogonalEdgeStyle;rounded=0;orthogonalLoop=1;jettySize=auto;html=1;" edge="1" parent="1" source="oIJ5VSYgp6g3CNGTtO5o-1" target="oIJ5VSYgp6g3CNGTtO5o-2">
          <mxGeometry relative="1" as="geometry" />
        </mxCell>
        <mxCell id="oIJ5VSYgp6g3CNGTtO5o-1" value="1 代码测试通过&lt;br&gt;（测试）" style="rounded=0;whiteSpace=wrap;html=1;fillColor=#d5e8d4;strokeColor=#82b366;" vertex="1" parent="1">
          <mxGeometry x="130" y="260" width="120" height="60" as="geometry" />
        </mxCell>
        <mxCell id="oIJ5VSYgp6g3CNGTtO5o-7" value="" style="edgeStyle=orthogonalEdgeStyle;rounded=0;orthogonalLoop=1;jettySize=auto;html=1;" edge="1" parent="1" source="oIJ5VSYgp6g3CNGTtO5o-2" target="oIJ5VSYgp6g3CNGTtO5o-6">
          <mxGeometry relative="1" as="geometry" />
        </mxCell>
        <mxCell id="oIJ5VSYgp6g3CNGTtO5o-2" value="2 企业微信群预告发版&lt;br&gt;（服务端）" style="rounded=0;whiteSpace=wrap;html=1;fillColor=#dae8fc;strokeColor=#6c8ebf;" vertex="1" parent="1">
          <mxGeometry x="300" y="260" width="120" height="60" as="geometry" />
        </mxCell>
        <mxCell id="oIJ5VSYgp6g3CNGTtO5o-11" style="edgeStyle=orthogonalEdgeStyle;rounded=0;orthogonalLoop=1;jettySize=auto;html=1;exitX=0.5;exitY=1;exitDx=0;exitDy=0;" edge="1" parent="1" source="oIJ5VSYgp6g3CNGTtO5o-6" target="oIJ5VSYgp6g3CNGTtO5o-8">
          <mxGeometry relative="1" as="geometry">
            <mxPoint x="510" y="440" as="targetPoint" />
          </mxGeometry>
        </mxCell>
        <mxCell id="oIJ5VSYgp6g3CNGTtO5o-6" value="3 回复测试通过&lt;br&gt;（测试）" style="rounded=0;whiteSpace=wrap;html=1;fillColor=#d5e8d4;strokeColor=#82b366;" vertex="1" parent="1">
          <mxGeometry x="470" y="260" width="120" height="60" as="geometry" />
        </mxCell>
        <mxCell id="oIJ5VSYgp6g3CNGTtO5o-13" value="" style="edgeStyle=orthogonalEdgeStyle;rounded=0;orthogonalLoop=1;jettySize=auto;html=1;" edge="1" parent="1" source="oIJ5VSYgp6g3CNGTtO5o-8" target="oIJ5VSYgp6g3CNGTtO5o-12">
          <mxGeometry relative="1" as="geometry" />
        </mxCell>
        <mxCell id="oIJ5VSYgp6g3CNGTtO5o-8" value="4 发版后通知&lt;br&gt;（服务端）&amp;nbsp;" style="rounded=0;whiteSpace=wrap;html=1;fillColor=#dae8fc;strokeColor=#6c8ebf;" vertex="1" parent="1">
          <mxGeometry x="302" y="370" width="116" height="60" as="geometry" />
        </mxCell>
        <mxCell id="oIJ5VSYgp6g3CNGTtO5o-12" value="5 线上回归与确认&lt;br&gt;（测试）" style="rounded=0;whiteSpace=wrap;html=1;fillColor=#d5e8d4;strokeColor=#82b366;" vertex="1" parent="1">
          <mxGeometry x="472" y="370" width="116" height="60" as="geometry" />
        </mxCell>
      </root>
    </mxGraphModel>
  </diagram>
</mxfile>
